<?xml version="1.0" encoding="UTF-8" standalone="no"?>
<!-- Created with Inkscape (http://www.inkscape.org/) -->

<svg
   xmlns:dc="http://purl.org/dc/elements/1.1/"
   xmlns:cc="http://creativecommons.org/ns#"
   xmlns:rdf="http://www.w3.org/1999/02/22-rdf-syntax-ns#"
   xmlns:svg="http://www.w3.org/2000/svg"
   xmlns="http://www.w3.org/2000/svg"
   xmlns:sodipodi="http://sodipodi.sourceforge.net/DTD/sodipodi-0.dtd"
   xmlns:inkscape="http://www.inkscape.org/namespaces/inkscape"
   width="400"
   height="200"
   id="svg2"
   version="1.1"
   inkscape:version="0.48.1 r9760"
   sodipodi:docname="paengr.svg">
  <defs
     id="defs4" />
  <sodipodi:namedview
     id="base"
     pagecolor="#ffffff"
     bordercolor="#666666"
     borderopacity="1.0"
     inkscape:pageopacity="0.0"
     inkscape:pageshadow="2"
     inkscape:zoom="0.70710678"
     inkscape:cx="212.15514"
     inkscape:cy="293.8679"
     inkscape:document-units="px"
     inkscape:current-layer="layer1"
     showgrid="false"
     inkscape:window-width="1250"
     inkscape:window-height="776"
     inkscape:window-x="30"
     inkscape:window-y="0"
     inkscape:window-maximized="1" />
  <metadata
     id="metadata7">
    <rdf:RDF>
      <cc:Work
         rdf:about="">
        <dc:format>image/svg+xml</dc:format>
        <dc:type
           rdf:resource="http://purl.org/dc/dcmitype/StillImage" />
        <dc:title />
      </cc:Work>
    </rdf:RDF>
  </metadata>
  <g
     inkscape:label="Layer 1"
     inkscape:groupmode="layer"
     id="layer1"
     transform="translate(0,-852.36218)">
    <g
       id="g3037"
       transform="matrix(0.78493861,0,0,0.78493861,-61.998991,575.7382)">
      <path
         transform="translate(1.0101525,2.0203051)"
         d="m 252.53814,482.63614 c 0,46.30502 -37.53764,83.84266 -83.84266,83.84266 -46.30502,0 -83.842659,-37.53764 -83.842659,-83.84266 0,-46.30502 37.537639,-83.84266 83.842659,-83.84266 46.30502,0 83.84266,37.53764 83.84266,83.84266 z"
         sodipodi:ry="83.842659"
         sodipodi:rx="83.842659"
         sodipodi:cy="482.63614"
         sodipodi:cx="168.69548"
         id="path2985"
         style="fill:none;stroke:#000000;stroke-width:6.36992455;stroke-linecap:round;stroke-miterlimit:4;stroke-opacity:1;stroke-dasharray:none;stroke-dashoffset:2.5"
         sodipodi:type="arc" />
      <path
         d="m 252.53814,482.63614 c 0,46.30502 -37.53764,83.84266 -83.84266,83.84266 -46.30502,0 -83.842659,-37.53764 -83.842659,-83.84266 0,-46.30502 37.537639,-83.84266 83.842659,-83.84266 46.30502,0 83.84266,37.53764 83.84266,83.84266 z"
         sodipodi:ry="83.842659"
         sodipodi:rx="83.842659"
         sodipodi:cy="482.63614"
         sodipodi:cx="168.69548"
         id="path2985-8"
         style="fill:none;stroke:#000000;stroke-width:6.36992455;stroke-linecap:round;stroke-miterlimit:4;stroke-opacity:1;stroke-dasharray:none;stroke-dashoffset:2.5"
         sodipodi:type="arc"
         transform="translate(329.30972,2.0203128)" />
      <path
         inkscape:connector-curvature="0"
         id="path3005"
         d="m 56.234779,569.81231 544.904121,0"
         style="fill:none;stroke:#000000;stroke-width:1.26597619;stroke-linecap:round;stroke-miterlimit:4;stroke-opacity:1;stroke-dasharray:none;stroke-dashoffset:2.5" />
      <path
         inkscape:connector-curvature="0"
         id="path3777"
         d="M 170.71578,484.65645 437.39605,372.52952"
         style="fill:none;stroke:#000000;stroke-width:2.54796982;stroke-linecap:round;stroke-miterlimit:4;stroke-opacity:1;stroke-dasharray:none;stroke-dashoffset:2.5" />
      <path
         inkscape:connector-curvature="0"
         id="path3779"
         d="M 504.06612,484.65645 488.91383,490.71737 436.3859,372.52952"
         style="fill:none;stroke:#000000;stroke-width:2.54796982;stroke-linecap:round;stroke-miterlimit:4;stroke-opacity:1;stroke-dasharray:none;stroke-dashoffset:2.5" />
      <path
         inkscape:connector-curvature="0"
         id="path3793"
         d="m 318.90516,411.36989 c 2.09569,-2.3449 3.10108,-5.09057 3.53553,-8.13173 0.18829,-1.31803 0.87505,-2.58981 1.06066,-3.88909 0.25148,-1.76032 0.45464,-3.53601 0.70711,-5.3033 0.0894,-0.62573 -0.417,-3.88909 -0.70711,-3.88909 -0.46797,0 -1.33858,4.06675 -1.41421,4.5962 -0.11667,0.81667 0.13562,1.66114 0,2.47487 -0.37295,2.23772 -0.36792,3.44935 0,5.65686 0.11625,0.69748 -0.13868,1.42794 0,2.12132 0.29166,1.45829 2.12132,3.37438 2.12132,4.59619"
         style="fill:none;stroke:#000000;stroke-width:2.54796982;stroke-linecap:round;stroke-miterlimit:4;stroke-opacity:1;stroke-dasharray:none;stroke-dashoffset:2.5" />
      <path
         inkscape:connector-curvature="0"
         id="path3797"
         d="m 328.4511,402.53105 c 1.27958,1.72108 1.06066,3.26056 1.06066,5.3033 0,0.77091 0.73331,2.12132 0.35355,2.12132 -0.1799,0 0.35356,-2.11164 0.35356,-2.12132 0,-1.91518 0.63498,-4.09838 1.41421,-5.65685 0.33416,-0.66833 1.16857,-0.46147 1.41421,-0.70711 0.001,-0.001 0.70711,-1.22558 0.70711,0"
         style="fill:none;stroke:#000000;stroke-width:2.54796982;stroke-linecap:round;stroke-miterlimit:4;stroke-opacity:1;stroke-dasharray:none;stroke-dashoffset:2.5" />
      <path
         inkscape:connector-curvature="0"
         id="path3799"
         d="m 470.75,437.36218 c 0.33333,-0.0833 0.91667,-0.58333 1,-0.25 0.0833,0.33334 -1.15366,0.55732 -1,0.25 0.21731,-0.43461 0.84569,-0.48046 1.25,-0.75 0.65946,-0.43964 0.86481,-1.57403 1,-2.25 0.14351,-0.71753 0.62969,-1.27814 0.75,-2 0.1788,-1.07279 0.34651,-2.17561 0.5,-3.25 0.11446,-0.80125 0.25,-1.68776 0.25,-2.5 0,-0.25532 0.0565,-3.94348 0,-4 -0.0833,-0.0833 -0.16667,0.16667 -0.25,0.25 -0.0589,0.0589 -0.19108,-0.0589 -0.25,0 -0.51606,0.51606 -0.0753,2.30112 -0.25,3 -0.0452,0.18078 -0.20481,0.31923 -0.25,0.5 -0.15761,0.63045 -0.20067,6.39799 0,7 0.0373,0.11181 0.21273,0.1382 0.25,0.25 0.125,0.375 -0.125,0.875 0,1.25 0.0373,0.11181 0.21273,0.1382 0.25,0.25 0.19885,0.59656 0.0632,1.75 0.75,1.75"
         style="fill:none;stroke:#000000;stroke-width:2.54796982;stroke-linecap:round;stroke-miterlimit:4;stroke-opacity:1;stroke-dasharray:none;stroke-dashoffset:2.5" />
      <path
         inkscape:connector-curvature="0"
         id="path3801"
         d="m 479.75,433.61218 c -0.33333,0 -1,0.33334 -1,0 0,-0.33333 1.33333,0 1,0 -0.41667,0 -0.83333,0 -1.25,0 -0.16667,0 -0.38215,-0.11785 -0.5,0 -0.0589,0.0589 0.0373,0.17547 0,0.25 -0.52022,1.04044 0.0173,-0.26725 -0.5,0.25 -0.15803,0.15803 -0.39915,0.95172 -0.25,1.25 0.20221,0.40443 0.68578,0.59289 1,0.75 0.46025,0.23013 0.0397,0.51988 0.5,0.75 0.25787,0.12894 0.57354,0.1471 0.75,0.5 0.0373,0.0745 -0.0589,0.19108 0,0.25 0.51726,0.51726 -0.0202,-0.79044 0.5,0.25 0.0745,0.14908 -0.0745,0.35093 0,0.5 0.68197,1.36395 -0.97739,1.75 -2.25,1.75"
         style="fill:none;stroke:#000000;stroke-width:2.54796982;stroke-linecap:round;stroke-miterlimit:4;stroke-opacity:1;stroke-dasharray:none;stroke-dashoffset:2.5" />
      <path
         inkscape:connector-curvature="0"
         id="path3803"
         d="m 495.25,482.86218 c 1.92891,-3.48059 2.25,-7.30376 2.25,-11.25 0,-0.19347 -0.2498,-2.49979 -0.25,-2.5 -0.11785,-0.11785 -0.33333,0 -0.5,0 -0.0833,0 -0.19108,-0.0589 -0.25,0 -0.40046,0.40047 -0.5,2.10684 -0.5,2.75 0,2.17151 0.25365,3.01459 0.75,5 0.0404,0.16169 -0.0527,0.34189 0,0.5 0.0373,0.11181 0.21273,0.1382 0.25,0.25 0.19968,0.59906 0.0503,1.40095 0.25,2 0.0373,0.11181 0.19729,0.1446 0.25,0.25 0.1118,0.22361 -0.0791,0.51283 0,0.75 0.14674,0.44024 0.5,0.3746 0.5,0.75"
         style="fill:none;stroke:#000000;stroke-width:2.54796982;stroke-linecap:round;stroke-miterlimit:4;stroke-opacity:1;stroke-dasharray:none;stroke-dashoffset:2.5" />
      <path
         inkscape:connector-curvature="0"
         id="path3805"
         d="m 502.25,481.36218 c 0.36906,-2.94105 -0.93778,-6.71833 0.75,-9.25 0.39579,-0.59368 1.75,-0.88502 1.75,-1.75"
         style="fill:none;stroke:#000000;stroke-width:2.54796982;stroke-linecap:round;stroke-miterlimit:4;stroke-opacity:1;stroke-dasharray:none;stroke-dashoffset:2.5" />
      <path
         inkscape:connector-curvature="0"
         id="path3807"
         d="m 500,477.36218 c 0.98981,0.0537 1.84777,0.0507 2.75,-0.25 0.23717,-0.079 0.51283,0.0791 0.75,0 0.37329,-0.12443 0.55951,-0.5 1,-0.5"
         style="fill:none;stroke:#000000;stroke-width:2.54796982;stroke-linecap:round;stroke-miterlimit:4;stroke-opacity:1;stroke-dasharray:none;stroke-dashoffset:2.5" />
      <path
         inkscape:connector-curvature="0"
         id="path3809"
         d="m 507,489.11218 c 0.0355,-0.80139 -0.0843,-1.08716 -0.25,-1.75 -0.0836,-0.33456 -0.70204,-2.29796 -0.5,-2.5 0.0589,-0.0589 0.19107,0.0589 0.25,0 0.0589,-0.0589 -0.0589,-0.19107 0,-0.25 0.32257,-0.32256 2.32673,0.0847 2.75,0 0.75867,-0.15173 1.49891,-0.49963 2.25,-0.75 0.37702,-0.12567 1,-0.0844 1,-0.5"
         style="fill:none;stroke:#000000;stroke-width:2.54796982;stroke-linecap:round;stroke-miterlimit:4;stroke-opacity:1;stroke-dasharray:none;stroke-dashoffset:2.5" />
      <path
         inkscape:connector-curvature="0"
         id="path3811"
         d="m 507.5,485.61218 c 1.80707,0.63776 3.3659,1.41061 5,2.5 0.45699,0.30466 1.06103,0.42078 1.5,0.75 0.18856,0.14143 0.29789,0.37874 0.5,0.5 0.53015,0.31809 1.23373,0.3628 1.75,0.75 1.1498,0.86235 2.37716,1.60173 3.5,2.5 1.46737,1.1739 4.26231,2.51232 5.5,3.75 0.21246,0.21246 0.28754,0.53755 0.5,0.75 0.585,0.585 1.56,1.04 2.25,1.5 0.25,0.16667 0.5,0.33334 0.75,0.5 0.25,0.25 0.4623,0.54451 0.75,0.75 1.26377,0.9027 2.76836,1.51469 4,2.5 0.87351,0.69882 1.62777,1.55222 2.5,2.25 1.06995,0.85596 2.33086,1.54852 3.5,2.25 0.70829,0.42498 1.31888,1.09133 2,1.5 0.22597,0.13559 0.52403,0.11442 0.75,0.25 0.40422,0.24254 0.59577,0.75747 1,1 0.22597,0.13559 0.52403,0.11442 0.75,0.25 0.45755,0.27454 0.79245,0.72547 1.25,1 1.38142,0.82886 2.75209,1.56408 4,2.5 0.6535,0.49013 1.58475,0.50107 2.25,1 0.76942,0.57707 2.88197,1.96066 3.75,2.25 0.15811,0.0527 0.34188,-0.0527 0.5,0 0.22361,0.0745 0.30388,0.36926 0.5,0.5 0.79214,0.5281 1.8652,1.45507 2.75,1.75 0.15811,0.0527 0.33831,-0.0404 0.5,0 0.48206,0.12052 0.86221,0.49148 1.25,0.75 0.5037,0.3358 1.2492,0.4996 1.75,0.75 0.21082,0.10541 0.28918,0.3946 0.5,0.5 0.53064,0.26533 1.12483,0.56242 1.5,0.75 0.38136,0.19069 0.62715,0.56358 1,0.75 0.14259,0.0713 1,0.15541 1,0.25 0,0.46069 -0.73776,-1.46326 -0.75,-1.5 -0.32945,-0.98835 -0.43901,-2.06701 -0.75,-3 -0.0406,-0.12165 -0.70368,-0.75 -0.5,-0.75 0.11021,0 0.62345,1.87036 0.75,2.25 0.21576,0.64729 0.47178,1.19356 0.75,1.75 0.1118,0.22361 -0.11181,0.5264 0,0.75 0.0373,0.0745 0.19107,-0.0589 0.25,0 0.07,0.07 0.0511,1.14773 0,1.25 -0.0822,0.16433 -2.4606,1.1053 -2.75,1.25 -0.31687,0.15844 -1.13796,0 -1.5,0"
         style="fill:none;stroke:#000000;stroke-width:2.54796982;stroke-linecap:round;stroke-miterlimit:4;stroke-opacity:1;stroke-dasharray:none;stroke-dashoffset:2.5" />
      <path
         inkscape:connector-curvature="0"
         id="path3815"
         d="m 535,489.11218 c 1.11423,1.19754 1.25,2.45541 1.25,4 0,0.73369 0.36314,1.5 0.25,1.5 -0.23445,0 0.20475,-3.02374 0.25,-3.25 0.095,-0.47512 0.0988,-1.0464 0.25,-1.5 0.29096,-0.87289 1.35492,-1.45984 1.75,-2.25 0.0373,-0.0745 -0.0589,-0.19107 0,-0.25 0.0823,-0.0823 1.92936,-0.16032 2.25,0 0.61785,0.30893 -0.0863,0.25 0.5,0.25"
         style="fill:none;stroke:#000000;stroke-width:2.54796982;stroke-linecap:round;stroke-miterlimit:4;stroke-opacity:1;stroke-dasharray:none;stroke-dashoffset:2.5" />
      <path
         inkscape:connector-curvature="0"
         id="path3821"
         d="m 543,498.86218 c 0.30423,-0.66764 0.90029,-3.44942 0.5,-4.25 -0.36937,-0.73872 -0.3671,-1.76579 0,-2.5 0.29371,-0.58743 -0.16384,-1.08616 0.5,-1.75 0.53019,-0.53019 2.5,-0.9458 2.5,0.25"
         style="fill:none;stroke:#000000;stroke-width:2.54796982;stroke-linecap:round;stroke-miterlimit:4;stroke-opacity:1;stroke-dasharray:none;stroke-dashoffset:2.5" />
      <path
         inkscape:connector-curvature="0"
         id="path3823"
         d="m 542,494.11218 c 0.66567,0.69988 2.02528,0.13764 2.75,0.5 0.10541,0.0527 0.13819,0.21274 0.25,0.25 0.5731,0.19104 0.78894,-0.21105 1.25,0.25"
         style="fill:none;stroke:#000000;stroke-width:2.54796982;stroke-linecap:round;stroke-miterlimit:4;stroke-opacity:1;stroke-dasharray:none;stroke-dashoffset:2.5" />
      <path
         inkscape:connector-curvature="0"
         id="path3825"
         d="m 177.4838,494.10138 c -0.33238,-2.05911 -0.88376,-3.53529 -1.76777,-5.3033 -0.18127,-0.36256 -0.17227,-1.05166 -0.35355,-1.41421 -0.0864,-0.17285 -0.68541,-0.72881 -0.35355,-1.06066 0.17962,-0.17962 1.56496,0.0507 1.76776,0 0.25566,-0.0639 0.45146,-0.28964 0.70711,-0.35356 0.57166,-0.14291 1.18996,0.11557 1.76777,0 0.2584,-0.0517 0.4487,-0.30187 0.70711,-0.35355 0.90377,-0.18076 3.27684,-0.0949 3.88908,-0.70711"
         style="fill:none;stroke:#000000;stroke-width:2.54796982;stroke-linecap:round;stroke-miterlimit:4;stroke-opacity:1;stroke-dasharray:none;stroke-dashoffset:2.5" />
      <path
         inkscape:connector-curvature="0"
         id="path3827"
         d="m 175.36248,486.67676 c 0.76985,0.13019 1.51466,0.40377 2.12132,0.70711 1.22164,0.61082 1.9905,2.23268 3.18198,2.82842 0.49607,0.24804 2.35361,1.6465 2.82843,2.12132 0.18634,0.18634 0.16721,0.52077 0.35355,0.70711 0.86275,0.86275 2.213,1.34614 3.18198,2.12132 1.35416,1.08333 2.71582,2.06502 4.24264,2.82843 1.06007,0.53003 1.5195,1.54809 2.47488,2.12132 0.31957,0.19174 0.74109,0.16181 1.06066,0.35355 0.82196,0.49318 1.3527,1.54486 2.12132,2.12132 1.00622,0.75467 2.18084,1.37047 3.18198,2.12132 0.65996,0.49498 1.1078,1.27279 1.76777,1.76777 0.47696,0.35772 1.34895,0.64185 1.76776,1.06066 0.18634,0.18634 0.16722,0.52077 0.35356,0.70711 0.83099,0.83099 2.88896,1.97481 3.88908,2.47487 0.29815,0.14907 0.39088,0.6017 0.70711,0.70711 0.22361,0.0745 0.4835,-0.0745 0.70711,0 0.70348,0.23449 1.09889,1.43333 1.76776,1.76776 0.63368,0.31684 1.48765,0.74383 2.12132,1.06066 1.04434,0.52217 1.87656,1.68618 3.18198,2.12132 1.07808,0.35936 1.9212,1.16295 2.82843,1.76777 1.58202,1.05468 3.36773,1.77375 4.94975,2.82843 1.36204,0.90803 2.70786,1.96328 4.24264,2.47487 0.17045,0.0568 3.7774,2.36319 3.88909,2.47488 0.0187,0.0187 1.58958,1.06066 1.06066,1.06066 -0.23571,0 0.10541,-0.49629 0,-0.70711 -0.80474,-0.80474 -0.0934,0.0732 -0.35356,-0.70711 -0.41925,-1.25775 -1.80073,-2.2532 -2.12132,-3.53553 -0.0572,-0.22867 0.0745,-0.4835 0,-0.70711 -0.10541,-0.31623 -0.5222,-0.42975 -0.7071,-0.70711 -0.0599,-0.0899 -0.71453,-1.76776 -0.70711,-1.76776 0.0545,0 0.80691,1.61381 1.06066,2.12132 0.38023,0.76046 0.99075,2.19324 1.41421,2.82843 0.2791,0.41864 0.90773,0.9554 1.06066,1.41421 0.11181,0.33541 -0.15811,0.74443 0,1.06066 0.27444,0.54887 1.0965,1.34255 0.70711,2.12132 -0.40794,0.81588 -3.67659,1.10768 -4.59619,1.41421 -0.4976,0.16587 -1.3004,-0.23368 -1.76777,0 -0.87377,0.43689 0.12204,0.35356 -0.70711,0.35356"
         style="fill:none;stroke:#000000;stroke-width:2.54796982;stroke-linecap:round;stroke-miterlimit:4;stroke-opacity:1;stroke-dasharray:none;stroke-dashoffset:2.5" />
      <path
         inkscape:connector-curvature="0"
         id="path3829"
         d="m 201.87899,493.74783 c 0.13565,0.43889 0.8324,4.24264 1.06066,4.24264 0.2357,0 0,-0.47141 0,-0.70711 0,-0.20247 0.10957,-1.15855 0,-1.41421 -0.31143,-0.72665 -1.06066,-1.33075 -1.06066,-2.12132 0,-0.68719 0.67947,-1.196 1.06066,-1.76777 0.46119,-0.69179 1.32401,-1.85555 2.12132,-2.12132 0.33953,-0.11318 1.07488,0.16966 1.41421,0 0.66011,-0.33006 0.95897,-0.35355 1.76777,-0.35355"
         style="fill:none;stroke:#000000;stroke-width:2.54796982;stroke-linecap:round;stroke-miterlimit:4;stroke-opacity:1;stroke-dasharray:none;stroke-dashoffset:2.5" />
      <path
         inkscape:connector-curvature="0"
         id="path3831"
         d="m 207.53584,499.40468 c 0.0927,-0.003 0.53143,2.47488 1.06066,2.47488 0.69606,0 -1.06066,-1.70206 -1.06066,-2.47488 0,-0.58925 0.75749,-0.90893 1.06066,-1.41421 0.15706,-0.26176 0.0682,-2.1895 0.35355,-2.47488 0.0922,-0.0922 2.74021,-0.35355 3.18198,-0.35355"
         style="fill:none;stroke:#000000;stroke-width:2.54796982;stroke-linecap:round;stroke-miterlimit:4;stroke-opacity:1;stroke-dasharray:none;stroke-dashoffset:2.5" />
      <path
         inkscape:connector-curvature="0"
         id="path3833"
         d="m 111.01576,435.05796 c 0.94281,-0.9428 1.88562,-1.88561 2.82843,-2.82842 0.36843,-0.36843 1.38823,-1.76777 1.41421,-1.76777 0.28493,0 0.30461,1.87656 0.35356,2.12132 -0.0811,0.70999 0.55318,1.15207 0.70711,1.76777 0.2247,0.89882 0.17273,1.92432 0.35355,2.82843 0.2327,1.16351 0.77538,2.39442 1.06066,3.53553 0.12111,0.48444 0.22293,2.12132 0.70711,2.12132"
         style="fill:none;stroke:#0000ff;stroke-width:2.54796982;stroke-linecap:round;stroke-miterlimit:4;stroke-opacity:1;stroke-dasharray:none;stroke-dashoffset:2.5" />
      <path
         inkscape:connector-curvature="0"
         id="path3835"
         d="m 113.49064,444.95746 c 0.4714,-0.11785 0.96305,-0.17309 1.41421,-0.35355 0.43751,-0.17501 0.94813,-0.82762 1.41422,-1.06066 1.05403,-0.52702 2.75804,-0.99028 3.53553,-1.76777"
         style="fill:none;stroke:#0000ff;stroke-width:2.54796982;stroke-linecap:round;stroke-miterlimit:4;stroke-opacity:1;stroke-dasharray:none;stroke-dashoffset:2.5" />
      <path
         inkscape:connector-curvature="0"
         id="path3839"
         d="m 306.53079,435.05796 c 0.88198,-0.56966 1.34614,-1.02662 2.12132,-1.41421 0.37992,-0.18996 1.00516,0.13635 1.41421,0 1.24198,-0.41399 1.90992,-0.42402 3.18198,0 0.32623,0.10874 1.21176,0.1511 1.41422,0.35355 0.14563,0.14563 0.27498,0.82496 0.35355,1.06066 0.10858,0.32574 0.48668,0.66128 0.35355,1.06066 -0.40127,1.20383 -2.40932,4.8842 -3.18198,5.65686 -1.00912,1.00912 -2.41458,1.93167 -3.53553,2.82843 -0.27671,0.22136 -3.81313,2.47487 -2.82843,2.47487 1.36133,0 1.91846,-0.49652 3.18198,-0.70711 2.32736,-0.38789 4.6817,-0.7071 7.07107,-0.7071 1.92185,0 3.68088,-0.10411 5.3033,0.7071 0.10541,0.0527 0.35355,-0.11785 0.35355,0 0,0.0825 -0.5539,-0.35355 -0.7071,-0.35355"
         style="fill:none;stroke:#0000ff;stroke-width:2.54796982;stroke-linecap:round;stroke-miterlimit:4;stroke-opacity:1;stroke-dasharray:none;stroke-dashoffset:2.5" />
      <path
         inkscape:connector-curvature="0"
         id="path3841"
         d="m 495.3283,478.19148 c 0,0.40367 -1.62809,1.62809 -2.12132,2.12132 -0.30557,0.30556 -1.55931,1.97622 -2.12132,1.41421 -0.16667,-0.16666 0.10541,-0.49629 0,-0.7071 -0.32089,-0.64178 -0.83719,-1.45092 -1.06066,-2.12132 -0.51025,-1.53076 0.67588,0.12994 -0.35356,-1.41422 -0.1849,-0.27735 -0.5222,-0.42976 -0.7071,-0.70711 -0.40626,-0.60938 -0.35356,-0.53442 -0.35356,-1.06066 0,-0.11785 0.11786,-0.35355 0,-0.35355 -0.26208,0 1.77786,7.41454 2.47488,6.71752 0.16666,-0.16667 -0.10541,-0.49629 0,-0.70711 0.51608,-1.03216 0.0949,-1.95764 0.35355,-2.47487 0.63207,-1.26415 0.63207,-4.03916 0,-5.30331 -0.56568,-1.13137 0.56569,-3.11127 0,-4.24264 -0.40043,-0.80086 -0.30611,-1.67288 -0.70711,-2.47487 -0.12546,-0.25092 -0.0974,-1.82927 0,-2.12132 0.0527,-0.15811 0.30086,-0.19544 0.35356,-0.35355 0.42426,-1.2728 -0.42427,-2.96985 0,-4.24264 0.0527,-0.15812 0.30085,-0.19544 0.35355,-0.35356 0.39015,-1.17049 -0.0422,-2.70184 0.35355,-3.88909 0.28155,-0.84462 1.02155,-1.68953 1.41422,-2.47487 0.23251,-0.46502 0.18297,-0.90245 0.35355,-1.41421 0.54577,-1.6373 1.71847,-1.01137 2.82843,-2.12132 0.34359,-0.3436 -1.53207,-0.11785 -1.41421,0.35355 0.11785,0.47141 0.9428,-0.2357 1.41421,-0.35355 -2.10524,-0.35868 -4.70535,-1.35964 -6.71752,-0.35356 -0.40581,0.20291 -0.89116,-0.0847 -1.76776,0.35356 -0.37713,0.18856 -1.03709,-0.18856 -1.41422,0 -0.743,0.3715 -1.07192,0.18241 -1.41421,0.35355 -0.41184,0.20592 -0.64882,0.50118 -1.06066,0.70711 -0.21347,0.10673 -0.89723,-0.16344 -1.06066,0 -0.0833,0.0833 0.0833,0.27022 0,0.35355 -0.0829,0.0829 -1.78937,0.2429 -2.12132,0.35355 -0.45533,0.15178 -2.23237,1.30317 -2.82843,0.70711 -0.55407,-0.55407 0.54393,-2.50206 0.70711,-2.82843 0.14563,-0.29125 0.35355,-0.70234 0.35355,-1.06066 0,-0.2357 -0.2357,-0.7071 0,-0.7071 0.17897,0 -0.669,1.33801 -0.7071,1.41421 -0.10355,0.20709 -1.7118,2.77246 -1.76777,2.82843 -0.73152,0.73151 0.0286,-1.11785 -0.70711,0.35355 -0.0363,0.0725 -0.0499,1.0108 0,1.06066 0.0833,0.0833 0.27022,-0.0833 0.35356,0 0.0833,0.0833 -0.0833,0.27022 0,0.35355 0.30597,0.30598 2.85286,0.35356 3.53553,0.35356 0.14558,0 0.96707,-0.0936 1.06066,0 0.4714,0.4714 -0.58926,0.35355 0.35355,0.35355"
         style="fill:none;stroke:#0000ff;stroke-width:2.54796982;stroke-linecap:round;stroke-miterlimit:4;stroke-opacity:1;stroke-dasharray:none;stroke-dashoffset:2.5" />
      <path
         inkscape:connector-curvature="0"
         id="path3843"
         d="m 501.33871,443.8968 c 0.4714,-0.35355 0.90893,-0.75749 1.41421,-1.06066 0.76364,-0.45819 3.13945,0.62205 3.53553,1.41421 0.10433,0.20866 0,0.82303 0,1.06066 0,0.92507 -2.42898,2.52076 -2.12132,2.82843 0.18707,0.18706 1.52417,0.29265 1.76777,0.35355 0.24254,0.0606 0.93939,0.67679 1.06066,0.70711 0.343,0.0857 0.71397,-0.0693 1.06066,0 0.51681,0.10336 0.9029,0.57928 1.41421,0.70711 0.22867,0.0572 0.4835,-0.0745 0.70711,0 0.49667,0.16555 0.54913,0.74471 0.70711,1.06066 0.0745,0.14907 0.35355,0.18688 0.35355,0.35355 0,0.16667 -0.27902,0.20448 -0.35355,0.35355 -0.19337,0.38673 -0.34224,1.04934 -0.70711,1.41422 -1.0752,1.0752 -3.85527,2.47487 -5.3033,2.47487"
         style="fill:none;stroke:#0000ff;stroke-width:2.54796982;stroke-linecap:round;stroke-miterlimit:4;stroke-opacity:1;stroke-dasharray:none;stroke-dashoffset:2.5" />
      <path
         inkscape:connector-curvature="0"
         id="path3845"
         d="m 560.73568,451.32142 c 0.75981,1.51962 0.7071,0.88717 0.7071,1.76777 0,0.94431 -0.49795,4.94975 0.70711,4.94975 0.16667,0 0.20448,-0.27902 0.35355,-0.35356 0.21082,-0.10541 0.4835,0.0745 0.70711,0 1.46924,-0.48975 2.83226,-1.06257 4.24264,-1.76777 3.08832,-1.54416 -1.49768,0.61708 1.41421,-0.35355 0.25,-0.0833 0.70711,-0.61708 0.70711,-0.35355 0,0.2357 -0.49629,-0.10541 -0.70711,0 -0.87377,0.43688 0.12204,0.35355 -0.7071,0.35355"
         style="fill:none;stroke:#0000ff;stroke-width:2.54796982;stroke-linecap:round;stroke-miterlimit:4;stroke-opacity:1;stroke-dasharray:none;stroke-dashoffset:2.5" />
      <path
         inkscape:connector-curvature="0"
         id="path3847"
         d="m 567.09964,449.90721 c -0.33667,1.90334 -0.26413,4.15737 0.35355,6.0104 0.21213,0.6364 -0.21213,1.48493 0,2.12133 0.24368,0.73103 0.35355,0.71752 0.35355,1.41421 0,0.82914 -0.0833,-0.16667 0.35356,0.70711 0.10673,0.21346 -0.16344,0.89722 0,1.06066 0.0833,0.0833 0.2357,0 0.35355,0"
         style="fill:none;stroke:#0000ff;stroke-width:2.54796982;stroke-linecap:round;stroke-miterlimit:4;stroke-opacity:1;stroke-dasharray:none;stroke-dashoffset:2.5" />
      <path
         inkscape:connector-curvature="0"
         id="path3849"
         d="m 171.47339,563.7514 c -0.74535,-0.4683 0.18634,-1.20875 0,-1.76777 -0.53811,-1.61433 -0.64957,-3.30539 -1.06066,-4.94975 -0.33176,-1.32705 0.22546,-2.88989 0,-4.24264 -0.77194,-4.63168 0,-9.11758 0,-13.78858 0,-0.39898 -0.30988,-3.33692 -0.7071,-3.53553 -0.49833,-0.24917 -1.96006,3.59757 -2.12132,4.24264 -0.28032,1.12125 -0.41197,2.06291 -0.70711,1.76776 -0.11785,-0.11785 0.27902,-0.20448 0.35355,-0.35355 0.24075,-0.48149 0.56727,-1.56196 0.70711,-2.12132 0.0678,-0.27136 0.54485,-2.82843 0.70711,-2.82843 0.1824,0 3.43474,4.29382 3.53553,4.5962 0.43689,1.31066 -0.47559,0.23151 0.35355,1.06066"
         style="fill:none;stroke:#ff0000;stroke-width:2.54796982;stroke-linecap:round;stroke-miterlimit:4;stroke-opacity:1;stroke-dasharray:none;stroke-dashoffset:2.5" />
      <path
         inkscape:connector-curvature="0"
         id="path3851"
         d="m 175.36248,531.57804 c 1.82072,1.0479 2.43556,2.94623 3.53554,4.59619 0.1849,0.27735 0.55803,0.40897 0.7071,0.70711 0.0527,0.10541 -0.0833,0.27022 0,0.35355 0.2995,0.2995 1.03409,0.32698 1.41422,0.70711"
         style="fill:none;stroke:#ff0000;stroke-width:2.54796982;stroke-linecap:round;stroke-miterlimit:4;stroke-opacity:1;stroke-dasharray:none;stroke-dashoffset:2.5" />
      <path
         inkscape:connector-curvature="0"
         id="path3853"
         d="m 178.89802,531.22449 c -1.96801,1.45024 -1.62831,6.2245 -3.18199,7.77817"
         style="fill:none;stroke:#ff0000;stroke-width:2.54796982;stroke-linecap:round;stroke-miterlimit:4;stroke-opacity:1;stroke-dasharray:none;stroke-dashoffset:2.5" />
      <path
         inkscape:connector-curvature="0"
         id="path3859"
         d="m 184.90842,537.942 c -0.4714,0.11785 -1.29636,0.82496 -1.41421,0.35355 -0.11785,-0.4714 1.56787,-0.81453 1.41421,-0.35355 -0.23863,0.71589 -1.28467,0.8345 -1.76776,1.41421 -0.24957,0.29949 0.55891,3.38734 0.7071,3.53554 0.16667,0.16667 0.47141,0 0.70711,0 1.41549,0 1.41421,-1.29038 1.41421,-2.47488 0,-1.2224 -0.0597,-0.80665 -1.06066,-2.47487 z"
         style="fill:none;stroke:#ff0000;stroke-width:2.54796982;stroke-linecap:round;stroke-miterlimit:4;stroke-opacity:1;stroke-dasharray:none;stroke-dashoffset:2.5" />
      <path
         inkscape:connector-curvature="0"
         id="path3861"
         d="m 171.47339,575.41866 c -2.17806,-0.24935 -4.1417,-0.55556 -6.36396,0 -0.98086,0.24522 -1.83932,0.0238 -2.82842,0.35355 -0.5777,0.19257 -1.50609,0 -2.12132,0 -2.41193,0 -6.71326,-0.42511 -8.83884,0 -1.53276,0.30655 -2.52165,0.12565 -3.88909,0.35356 -3.8765,0.64608 -7.3467,0.7071 -11.31371,0.7071"
         style="fill:none;stroke:#ff0000;stroke-width:2.54796982;stroke-linecap:round;stroke-miterlimit:4;stroke-opacity:1;stroke-dasharray:none;stroke-dashoffset:2.5" />
      <path
         inkscape:connector-curvature="0"
         id="path3863"
         d="m 137.53227,572.23668 c -0.35355,0.4714 -0.58926,1.76777 -1.06066,1.41421 -0.47141,-0.35355 1.47733,-1.83088 1.06066,-1.41421 -1.15016,1.15016 -1.28045,1.50024 -1.76777,2.47487 -0.28284,0.56569 -1.13137,0.84853 -1.41421,1.41422 -0.0527,0.10541 0.0833,0.27022 0,0.35355 -0.0551,0.0551 -1.00097,0.41324 -0.70711,0.70711 0.41092,0.41092 2.60706,0.94997 3.53554,1.41421 0.37712,0.18856 1.03709,-0.18856 1.41421,0 0.87377,0.43689 -0.12204,0.35355 0.70711,0.35355"
         style="fill:none;stroke:#ff0000;stroke-width:2.54796982;stroke-linecap:round;stroke-miterlimit:4;stroke-opacity:1;stroke-dasharray:none;stroke-dashoffset:2.5" />
      <path
         inkscape:connector-curvature="0"
         id="path3867"
         d="m 130.10765,580.72196 c -0.31959,1.89248 0.33136,3.13759 1.06066,4.5962 0.0527,0.1054 -0.0833,0.27022 0,0.35355 0.0833,0.0833 0.27022,-0.0833 0.35355,0 0.0833,0.0833 -0.0833,0.27022 0,0.35355 0.16667,0.16667 0.47141,0 0.70711,0 0.78777,0 1.69368,-0.91249 2.12132,-1.76776 0.14142,-0.28285 -0.14142,-0.77782 0,-1.06067 0.27808,-0.55615 0.35355,-0.40084 0.35355,-1.06066 0,-0.28476 0.18736,-1.41421 -0.35355,-1.41421 -0.28249,0 0.63228,3.94332 0.7071,4.24264 0.17397,0.69585 0.21236,4.3127 0,4.94975 -0.11293,0.33881 -0.73007,1.60247 -1.06066,1.76777 -0.1054,0.0527 -0.27022,-0.0833 -0.35355,0 -0.0833,0.0833 0.0833,0.27022 0,0.35355 -0.50064,0.50064 -2.07955,-0.35355 -2.47487,-0.35355"
         style="fill:none;stroke:#ff0000;stroke-width:2.54796982;stroke-linecap:round;stroke-miterlimit:4;stroke-opacity:1;stroke-dasharray:none;stroke-dashoffset:2.5" />
      <path
         inkscape:connector-curvature="0"
         id="path3888"
         d="m 137.25,586.11218 c 0,0.41667 0,0.83334 0,1.25 0,0.30923 0.0627,0.81268 0.25,1 0.0589,0.0589 0.19107,-0.0589 0.25,0 0.0589,0.0589 -0.0373,0.17547 0,0.25 0.19062,0.38125 0.65697,0.25 1,0.25 0.16667,0 0.38215,0.11786 0.5,0 0.0589,-0.0589 -0.0589,-0.19107 0,-0.25 0.0589,-0.0589 0.19107,0.0589 0.25,0 0.0589,-0.0589 -0.0589,-0.19107 0,-0.25 0.10007,-0.10006 0.3177,-0.13539 0.5,-0.5 0.0745,-0.14907 -0.11785,-0.38214 0,-0.5 0.0589,-0.0589 0.19107,0.0589 0.25,0 0.0662,-0.0662 0,-0.64705 0,-0.75 0,-0.69825 -0.0558,-1.40292 -0.75,-1.75 -0.14907,-0.0745 -0.38215,0.11786 -0.5,0 -0.0589,-0.0589 0.0589,-0.19107 0,-0.25 -0.44355,-0.44354 -1.24398,0.65664 -1.75,1.5 z"
         style="fill:none;stroke:#ff0000;stroke-width:2.54796982;stroke-linecap:round;stroke-miterlimit:4;stroke-opacity:1;stroke-dasharray:none;stroke-dashoffset:2.5" />
      <path
         inkscape:connector-curvature="0"
         id="path3890"
         d="m 187.25,484.11218 c 0.97553,-0.35014 1.98446,-0.25 3,-0.25"
         style="fill:none;stroke:#000000;stroke-width:2.54796982;stroke-linecap:round;stroke-miterlimit:4;stroke-opacity:1;stroke-dasharray:none;stroke-dashoffset:2.5" />
      <path
         inkscape:connector-curvature="0"
         id="path3892"
         d="m 197.5,482.86218 c 1.6152,-0.60045 3.01358,-1 4.75,-1"
         style="fill:none;stroke:#000000;stroke-width:2.54796982;stroke-linecap:round;stroke-miterlimit:4;stroke-opacity:1;stroke-dasharray:none;stroke-dashoffset:2.5" />
      <path
         inkscape:connector-curvature="0"
         id="path3894"
         d="m 210,483.36218 c 1.24836,-0.37247 2.19844,-0.5 3.5,-0.5"
         style="fill:none;stroke:#000000;stroke-width:2.54796982;stroke-linecap:round;stroke-miterlimit:4;stroke-opacity:1;stroke-dasharray:none;stroke-dashoffset:2.5" />
      <path
         inkscape:connector-curvature="0"
         id="path3896"
         d="m 220.75,484.11218 c 0.59422,-0.25361 0.94485,-0.25 1.5,-0.25"
         style="fill:none;stroke:#000000;stroke-width:2.54796982;stroke-linecap:round;stroke-miterlimit:4;stroke-opacity:1;stroke-dasharray:none;stroke-dashoffset:2.5" />
      <path
         inkscape:connector-curvature="0"
         id="path3898"
         d="m 230,483.86218 c 0.93406,0.34558 1.89853,-0.25 2.75,-0.25"
         style="fill:none;stroke:#000000;stroke-width:2.54796982;stroke-linecap:round;stroke-miterlimit:4;stroke-opacity:1;stroke-dasharray:none;stroke-dashoffset:2.5" />
      <path
         inkscape:connector-curvature="0"
         id="path3900"
         d="m 239.25,483.61218 c 2.1096,0.4423 4.34091,0.25 6.5,0.25"
         style="fill:none;stroke:#000000;stroke-width:2.54796982;stroke-linecap:round;stroke-miterlimit:4;stroke-opacity:1;stroke-dasharray:none;stroke-dashoffset:2.5" />
      <path
         inkscape:connector-curvature="0"
         id="path3902"
         d="m 235.75,478.36218 c -0.5133,-0.20042 0.44003,-0.86994 0.25,-1.25 -0.32615,-0.6523 -0.42637,-1.35273 -0.75,-2 -0.0755,-0.15094 0.11557,-0.63443 0,-0.75 -0.0589,-0.0589 -0.21273,0.0745 -0.25,0 -0.0745,-0.14907 0.0527,-0.34188 0,-0.5 -0.14696,-0.44086 -0.58312,-0.74937 -0.75,-1.25 -0.0791,-0.23717 0.0791,-0.51282 0,-0.75 -0.0373,-0.1118 -0.21273,-0.13819 -0.25,-0.25 -0.19883,-0.59649 -0.0101,-1.28025 -0.25,-2 -0.0264,-0.079 0,-0.16666 0,-0.25 0,-0.16666 0.0527,-0.34188 0,-0.5 -0.0373,-0.1118 -0.1973,-0.14459 -0.25,-0.25 -0.1118,-0.2236 0.0791,-0.51282 0,-0.75 -0.0505,-0.1514 -0.41899,-0.87848 -0.5,-1 -0.13074,-0.19611 -0.42547,-0.27639 -0.5,-0.5 -0.12062,-0.36186 -0.0856,-0.67117 -0.25,-1 -0.22683,-0.45365 -1.12165,-0.87164 -1.25,-1 -0.0589,-0.0589 0.0589,-0.19107 0,-0.25 -0.30833,-0.30833 -0.475,0.225 -0.5,0.25 -0.14305,0.14305 -0.63181,0.14544 -0.75,0.5 -0.0527,0.15812 0.0527,0.34189 0,0.5 -0.2368,0.7104 -0.8414,1.45699 -1,2.25 -0.049,0.24515 0.0606,0.50747 0,0.75 -0.0286,0.11434 -0.21273,0.1382 -0.25,0.25 -0.003,0.009 -0.25544,0.99457 -0.25,1 0.28683,0.28683 0.9017,-0.85255 1,-1 0.85024,-1.27535 1.16339,-3.16338 2.25,-4.25 0.0589,-0.0589 0.19107,0.0589 0.25,0 0.0589,-0.0589 -0.0589,-0.19107 0,-0.25 0.11785,-0.11785 0.38215,0.11786 0.5,0 0.0589,-0.0589 -0.0833,-0.25 0,-0.25 0.1878,0 3.42356,2.42357 3.75,2.75"
         style="fill:none;stroke:#000000;stroke-width:2.54796982;stroke-linecap:round;stroke-miterlimit:4;stroke-opacity:1;stroke-dasharray:none;stroke-dashoffset:2.5" />
      <path
         inkscape:connector-curvature="0"
         id="path3904"
         d="m 239,469.61218 c -0.29453,0.85713 -0.25,1.62916 -0.25,2.5 0,0.69284 0.0875,1.09992 0.25,1.75 0.0808,0.32339 -0.10541,0.68378 0,1 0.0373,0.11181 0.19729,0.1446 0.25,0.25 0.1,0.2 -0.1,0.55 0,0.75 0.47171,0.94342 1.52255,0.86373 2.25,0.5 0.39682,-0.1984 0.58502,-0.83502 0.75,-1 0.33333,-0.33333 0.23989,0.53033 0.5,-0.25 0.0527,-0.15811 -0.0527,-0.34188 0,-0.5 0.083,-0.24895 0.41701,-0.50104 0.5,-0.75 0.15,-0.45 -0.15,-1.05 0,-1.5 0.30159,-0.90478 0.41664,-1.91672 0,-2.75 -0.26847,-0.53693 0.0821,-1.33394 -0.75,-1.75 -0.16713,-0.0836 -1.88564,-0.11436 -2,0 -0.13921,0.13922 -0.12021,0.34426 -0.25,0.5 -0.37723,0.45268 -1.08068,0.6856 -1.25,1.25 -0.12895,0.42984 0.35809,0.82427 0.5,1.25 0.0527,0.15812 -0.11785,0.38215 0,0.5 0.0589,0.0589 0.17546,-0.0373 0.25,0 0.29122,0.14561 0.45878,0.3544 0.75,0.5 0.50729,0.25365 1.89982,0 2.5,0"
         style="fill:none;stroke:#000000;stroke-width:2.54796982;stroke-linecap:round;stroke-miterlimit:4;stroke-opacity:1;stroke-dasharray:none;stroke-dashoffset:2.5" />
      <path
         inkscape:connector-curvature="0"
         id="path3910"
         d="m 245.5,479.86218 c -0.14868,-0.63566 -0.54504,-6.45495 -0.25,-6.75 0.0589,-0.0589 0.19107,0.0589 0.25,0 0.0589,-0.0589 -0.0373,-0.17546 0,-0.25 0.16834,-0.33668 0.70984,-0.60492 1,-0.75 0.42915,-0.21457 1.97978,-0.0202 2.25,0.25 0.22576,0.22577 0.35106,0.95213 0.5,1.25 0.11813,0.23627 0.56107,1.43893 0.25,1.75 -0.0589,0.0589 -0.17547,-0.0373 -0.25,0 -0.21082,0.10541 -0.28918,0.3946 -0.5,0.5 -0.5667,0.28335 -1.17802,0.46401 -1.75,0.75 -0.32978,0.16489 -1.25,0.0649 -1.25,-0.25"
         style="fill:none;stroke:#000000;stroke-width:2.54796982;stroke-linecap:round;stroke-miterlimit:4;stroke-opacity:1;stroke-dasharray:none;stroke-dashoffset:2.5" />
      <path
         inkscape:connector-curvature="0"
         id="path3912"
         d="m 167,507.36218 c -2.97488,-0.67445 -5.48047,-1.82031 -8,-3.5 -0.39223,-0.26148 -0.55279,-0.85092 -1,-1 -0.31623,-0.1054 -0.72265,0.1849 -1,0 -0.31009,-0.20672 -0.23648,-0.73647 -0.5,-1 -0.60926,-0.60926 -1.89074,-0.89073 -2.5,-1.5 -0.26352,-0.26352 -0.29328,-0.68991 -0.5,-1 -0.76828,-1.15242 -2.16788,-1.8905 -3,-3 -0.80706,-1.07607 -1.2516,-2.3774 -2,-3.5 -0.76579,-1.14868 -0.2856,0.21441 -1.5,-1 -1.24005,-1.24005 -3.04227,-8.16909 -3.5,-10 -0.19168,-0.76673 0.24943,-1.7517 0,-2.5 -0.27198,-0.81594 -0.81227,-1.56317 -0.5,-2.5 0.68745,-2.06236 0.81723,-3.95168 1.5,-6 0.53987,-1.61962 5.01926,-6.75963 6.5,-7.5 0.30303,-0.15151 1.29048,-0.29047 1.5,-0.5 0.56852,-0.56852 -2.3434,-0.8434 -2.5,-1 -0.11785,-0.11785 0.11785,-0.38214 0,-0.5 -0.35355,-0.35355 -2,0 -1.5,0 2.27614,0 0.0286,0.23571 1.5,-0.5 0.53729,-0.26864 1.42151,0.19284 2,0 2.25855,-0.75285 3.52727,-0.48636 5.5,0.5 0.14907,0.0745 0.38215,-0.11785 0.5,0 1.28849,1.28849 -2.17733,5.53198 -2.5,6.5 -0.40932,1.22796 0.14588,1.20825 -0.5,2.5"
         style="fill:none;stroke:#000000;stroke-width:2.54796982;stroke-linecap:round;stroke-miterlimit:4;stroke-opacity:1;stroke-dasharray:none;stroke-dashoffset:2.5" />
      <path
         inkscape:connector-curvature="0"
         id="path3914"
         d="m 130.5,482.86218 c -0.5,0.66667 -0.83333,2.5 -1.5,2 -0.66667,-0.5 1.5,-2.83333 1.5,-2 0,0.97183 -1.06539,1.63078 -1.5,2.5 -0.15727,0.31455 -0.31895,4.68105 0,5 0.11785,0.11786 0.38215,-0.11785 0.5,0 0.32779,0.32779 0.2495,1.7495 0.5,2 0.25,0.25 0.75,0.25 1,0.5 0.11785,0.11786 -0.11785,0.38215 0,0.5 1.10698,1.10699 2.31362,-1.31362 2.5,-1.5 0.11785,-0.11785 0.38215,0.11786 0.5,0 0.23113,-0.23113 -0.15094,-1.19811 0,-1.5 0.83286,-1.66572 0.83286,-4.83427 0,-6.5 -0.32438,-0.64875 -0.66226,-1.32452 -1,-2 -0.0745,-0.14907 0.15475,-0.56189 0,-0.5 -0.90232,0.36093 -1.81282,2.18719 -2.5,1.5 -0.68718,-0.68718 1.13907,-1.59768 1.5,-2.5 0.1238,-0.30949 -0.66667,0 -1,0 -0.33333,0 -1,-0.33333 -1,0 0,0.84984 0.41544,1.65439 0.5,2.5 0.0829,0.8292 -0.137,1.67801 0,2.5 0.023,0.13797 2.84849,1.5 3,1.5 0.2357,0 0.33333,-0.33333 0.5,-0.5"
         style="fill:none;stroke:#000000;stroke-width:2.54796982;stroke-linecap:round;stroke-miterlimit:4;stroke-opacity:1;stroke-dasharray:none;stroke-dashoffset:2.5" />
      <path
         inkscape:connector-curvature="0"
         id="path3916"
         d="m 137.5,498.36218 c 0.0358,-0.61729 -1.27444,-4.72556 -0.5,-5.5 0.31816,-0.31816 1.3617,-0.68084 2,-1 0.69104,-0.34551 1.16335,-1 2,-1"
         style="fill:none;stroke:#000000;stroke-width:2.54796982;stroke-linecap:round;stroke-miterlimit:4;stroke-opacity:1;stroke-dasharray:none;stroke-dashoffset:2.5" />
      <path
         inkscape:connector-curvature="0"
         id="path3918"
         d="m 434.5,401.86219 c -0.33333,0.66666 -0.33333,2.33333 -1,2 -0.66667,-0.33334 0.47295,-2.52705 1,-2 0.60092,0.60092 -0.5,1.65016 -0.5,2.5 0,0.16666 0.35093,-0.0745 0.5,0 0.33333,0.16666 0.73648,0.23647 1,0.5 0.11785,0.11785 -0.14907,0.42546 0,0.5 0.4,0.2 1.1,-0.2 1.5,0 0.72189,0.36094 1.2781,0.63905 2,1 0.69297,0.34648 2.20267,0 3,0 3.99496,0 7.10102,-1.30051 10.5,-3 0.14907,-0.0745 0.33333,0 0.5,0 0.33333,-0.16667 0.68991,-0.29328 1,-0.5 1.06582,-0.71055 1.93418,-1.78946 3,-2.5 0.77659,-0.51773 2.03742,-1.07485 2.5,-2 0.45868,-0.91737 1.032,-2.064 1.5,-3 0.2669,-0.5338 -0.2669,-0.46621 0,-1 0.42873,-0.85748 1.0469,-3.40621 0.5,-4.5 -1.35888,-2.71776 -5.17399,-3.60867 -8.5,-2.5 -0.31623,0.1054 -0.70186,-0.14908 -1,0 -0.39321,0.1966 -1.77012,0.77012 -2,1 -0.11785,0.11785 0.11785,0.38214 0,0.5 -0.11785,0.11785 -0.5,-0.16667 -0.5,0 0,0.15158 2.80949,1.90474 3,2 0.30536,0.15268 1.5,1.51519 1.5,1 0,-0.37268 -0.33334,-0.66667 -0.5,-1 -0.3,-0.6 -1.2,-0.9 -1.5,-1.5 -0.27346,-0.54692 -0.48399,-1.484 -1,-2 -0.41487,-0.41488 -2.5,-0.57059 -2.5,-1.5 0,-0.0488 2.30648,0.0645 2.5,0 0.64087,-0.21363 6.40205,-1.5 5,-1.5"
         style="fill:none;stroke:#000000;stroke-width:2.54796982;stroke-linecap:round;stroke-miterlimit:4;stroke-opacity:1;stroke-dasharray:none;stroke-dashoffset:2.5" />
      <path
         inkscape:connector-curvature="0"
         id="path3922"
         d="m 470.5,380.36219 c -0.33334,0.66666 -0.72318,1.30795 -1,2 -0.68891,1.72227 0.23159,8.73158 1,9.5 0.57215,0.57215 2.7651,-0.53021 3,-1 0.0745,-0.14908 -0.11785,-0.38215 0,-0.5 0.2357,-0.23571 0.7643,0.2357 1,0 0.11785,-0.11786 -0.0745,-0.35093 0,-0.5 0.21082,-0.42164 0.78918,-0.57837 1,-1 0.23397,-0.46795 0.82044,-3.35911 0.5,-4 -0.22454,-0.44908 -0.80199,-2.30199 -1,-2.5 -0.11785,-0.11786 -0.38215,0.11785 -0.5,0 -0.2357,-0.23571 0.14907,-0.70186 0,-1 -0.57673,-1.15346 -2.87397,-2.68905 -4,-1 -0.47141,0.7071 0.36029,1.66172 0.5,2.5 0.0548,0.32879 -0.14907,0.70185 0,1 0.23001,0.46001 5.5,4.20239 5.5,2"
         style="fill:none;stroke:#000000;stroke-width:2.54796982;stroke-linecap:round;stroke-miterlimit:4;stroke-opacity:1;stroke-dasharray:none;stroke-dashoffset:2.5" />
      <path
         inkscape:connector-curvature="0"
         id="path3924"
         d="m 484.5,385.36219 c -0.66667,0.16666 -1.83334,1.16666 -2,0.5 -0.16667,-0.66667 2.48591,-0.98592 2,-0.5 -0.23399,0.23398 -3.59187,1.59186 -4,2 -0.36662,0.36661 0.18509,1.34254 0.5,1.5 0.9026,0.4513 3.31392,0.31391 4,1 0.11785,0.11785 -0.11785,0.38214 0,0.5 0.11785,0.11785 0.38215,-0.11786 0.5,0 0.77724,0.77723 -1.35552,2 -2,2 -1.10131,0 -0.71242,0.5 -1.5,0.5"
         style="fill:none;stroke:#000000;stroke-width:2.54796982;stroke-linecap:round;stroke-miterlimit:4;stroke-opacity:1;stroke-dasharray:none;stroke-dashoffset:2.5" />
      <path
         inkscape:connector-curvature="0"
         id="path3926"
         d="m 522.5,509.36218 c -0.97376,1.25032 -3.38275,0.94138 -4.5,1.5 -1.49346,0.74673 -2.80091,1.43364 -4.5,2 -0.45,0.15 -1.05,-0.15 -1.5,0 -0.76221,0.25407 -1.59998,0.775 -2.5,1 -1.2561,0.31403 -2.72858,-0.25428 -4,0 -1.22482,0.24497 -2.20271,0.75946 -3.5,0.5 -1.69512,-0.33902 -3.30488,-0.66097 -5,-1 -0.65372,-0.13074 -1.35324,0.1617 -2,0 -2.1674,-0.54184 -4.34762,-1.4619 -6.5,-2 -1.61479,-0.40369 -4.04438,-2.52958 -5.5,-3.5 -1.14869,-0.76578 0.2144,-0.28559 -1,-1.5 -0.26352,-0.26352 -0.68991,-0.29327 -1,-0.5 -0.022,-0.0147 -2.97832,-3.45663 -3,-3.5 -0.22361,-0.44721 0.15811,-1.02565 0,-1.5 -0.0745,-0.2236 -0.39459,-0.28918 -0.5,-0.5 -0.22639,-0.45278 -0.74074,-5.27777 -0.5,-6 0.0745,-0.2236 0.42546,-0.27639 0.5,-0.5 0.25,-0.75 -0.25,-1.75 0,-2.5 0.0745,-0.2236 0.39459,-0.28918 0.5,-0.5 0.23986,-0.47972 -0.028,-0.94394 0.5,-2 0.0186,-0.0371 0.79533,-2 0.5,-2 -0.43828,0 -5.5,4.86877 -5.5,5 0,0.16667 0.35093,0.0745 0.5,0 1.44013,-0.72006 3.3613,-2.93065 4.5,-3.5 0.29814,-0.14907 0.7643,0.23571 1,0 0.11785,-0.11785 -0.16667,-0.5 0,-0.5 0.56257,0 2.5,4.92046 2.5,5.5"
         style="fill:none;stroke:#000000;stroke-width:2.54796982;stroke-linecap:round;stroke-miterlimit:4;stroke-opacity:1;stroke-dasharray:none;stroke-dashoffset:2.5" />
      <path
         inkscape:connector-curvature="0"
         id="path3928"
         d="m 481,516.36218 c -2.53996,2.99871 -3.17588,6.64824 -1.5,10 0.34484,0.68968 -0.60553,0.44724 0.5,1 1.29966,0.64984 3.4807,-1.46139 4,-2.5 0.15151,-0.30303 0.29048,-1.29047 0.5,-1.5 0.11785,-0.11785 0.42546,0.14908 0.5,0 0.33786,-0.67571 1.25215,-6.24353 1,-7 -0.20652,-0.61954 -1.35452,-3.14548 -2.5,-2 -0.11785,0.11786 0.13014,0.39589 0,0.5 -0.75887,0.6071 -2.5,0.52818 -2.5,1.5 0,0.10639 3.76044,3 4,3"
         style="fill:none;stroke:#000000;stroke-width:2.54796982;stroke-linecap:round;stroke-miterlimit:4;stroke-opacity:1;stroke-dasharray:none;stroke-dashoffset:2.5" />
      <path
         inkscape:connector-curvature="0"
         id="path3930"
         d="m 488.5,532.36218 c -0.5467,-1.25455 -0.5,-2.24628 -0.5,-3.5 0,-0.71468 -1.0829,-4.9171 -0.5,-5.5 0.11785,-0.11785 0.38215,0.11786 0.5,0 0.2505,-0.2505 0.17221,-1.67221 0.5,-2 0.31816,-0.31816 1.3617,-0.68084 2,-1 0.38886,-0.19443 1.2746,-1.22539 1.5,-1 0.11785,0.11786 0,0.33334 0,0.5"
         style="fill:none;stroke:#000000;stroke-width:2.54796982;stroke-linecap:round;stroke-miterlimit:4;stroke-opacity:1;stroke-dasharray:none;stroke-dashoffset:2.5" />
      <path
         inkscape:connector-curvature="0"
         id="path3932"
         d="m 487,527.86218 c 2.49376,-0.53907 3.9934,-2 6.5,-2"
         style="fill:none;stroke:#000000;stroke-width:2.54796982;stroke-linecap:round;stroke-miterlimit:4;stroke-opacity:1;stroke-dasharray:none;stroke-dashoffset:2.5" />
    </g>
  </g>
</svg>
